<svg xmlns="http://www.w3.org/2000/svg" viewBox="0 0 40 40" fill="none">
  <defs>
    <linearGradient id="main-grad" x1="0" y1="0" x2="40" y2="40" gradientUnits="userSpaceOnUse">
      <stop offset="0%" stop-color="#05D5A1"/>
      <stop offset="100%" stop-color="#0066FF"/>
    </linearGradient>
    <linearGradient id="star-grad" x1="20" y1="2" x2="20" y2="14">
      <stop offset="0%" stop-color="#00F5D4"/>
      <stop offset="100%" stop-color="#05D5A1"/>
    </linearGradient>
  </defs>
  <!-- Fluid M shape (wave/pool) -->
  <path d="M6 32 C6 32 8 18 12 18 C16 18 15 28 20 22 C25 16 24 18 28 18 C32 18 34 32 34 32"
        stroke="url(#main-grad)" stroke-width="3.5" fill="none" stroke-linecap="round" stroke-linejoin="round"/>
  <!-- Pool wave beneath -->
  <path d="M4 34 Q12 30 20 34 Q28 38 36 34" stroke="url(#main-grad)" stroke-width="1.5" fill="none" opacity="0.4" stroke-linecap="round"/>
  <!-- 4-point star at top -->
  <path d="M20 3 L21 7 L25 8 L21 9 L20 13 L19 9 L15 8 L19 7 Z" fill="url(#star-grad)"/>
</svg>
